<svg width="256" height="256" viewBox="0 0 256 256" fill="none" xmlns="http://www.w3.org/2000/svg">
<g clip-path="url(#clip0_30_2108)">
<path d="M32 32L64 24L96 8L136 0H160L224 32H232V48L256 104V136V168L248 176L240 192L216 216V232H208L176 240L144 248L128 256H112H88V248.5L56 232L24 208L8 176V160V128L0 112V96L16 80L24 48L32 32Z" fill="white"/>
<path d="M64 32L96 16L136 8H160L192 24.5L224 40V56.5L232 64L252 104V120L248 136V168L240 184L208 216V224L176 232L144 240L120 248H96L88 240L56 224L40 208H32L16 176V160V128H24V160V176L32 184L36 187.5L40 192L48 200V208L64 224H72L88 232V224H120L152 216L168 200L184 208L192 192L184 184V168L200 152L192 144V136V112L200 128V112L216 96L224 80L208 72V56L200 48L184 40H176L168 24H160H152V16H144L136 24H128V17.5L96 24L80 32V40L64 48L56 56H40L32 80L16 96L24 104V128H16L8 112V96L24 80L32 56L40 40L48 32H64Z" fill="black"/>
<path d="M120 32L136 24V32V40H120L136 32H120V40H104V48L120 40V48L104 56L88 48V40L104 48V40H96L104 32H120Z" fill="black"/>
<path d="M104 136L96 152L112 160H96H88L96 176L80 168L72 184V168L64 176V160V152H48L64 144L72 160H80L88 152H80H72L64 136L72 144L80 136H88L80 144L80 148V152L88 144L104 136Z" fill="black"/>
<path d="M72 80V88L64 96L56 104V92H48L56 96L52 104L41.5 103.5L48 92H42L32 112V109L48 104L40 120V108L32 120V112V109V104L40 88L72 80Z" fill="black"/>
<path d="M160 64L168 72L184 56V64L172 76L164 80L168 88H164L160 96V104H152V96L144 92H152L160 88V76L152 80H160L152 88L144 80L136 88L144 92V100L136 104L140 96L136 88V80L140 72H144H152L160 56V64Z" fill="black"/>
</g>
<defs>
<clipPath id="clip0_30_2108">
<rect width="256" height="256" fill="white"/>
</clipPath>
</defs>
</svg>
