<svg width="224" height="224" viewBox="0 0 224 224" fill="none" xmlns="http://www.w3.org/2000/svg">
<g clip-path="url(#clip0_30_2138)">
<path d="M136 0L168 16L184 48H200L208 80L224 96V136L200 168L184 184L152 200L120 208L88 224H64L56 216L40 184L24 152L16 120L0 88L48 40.5L80 24L88 8L104 0H136Z" fill="#FBFBFB"/>
<path d="M136 8L168 24V32L176 48L184 56H195L200 80L216 104V136L192 168L176 184L152 192L120 200L104 208V200L120 192L152 184L176 176L192 156.5L208 136V104L192 80L176 64L168 48L160.5 32L152 24H136L104 16L96 24L128 32L144 48L120 56L88 48V40L72 48V72L48 72.5L40 64L32 80L24 96H40L48 104V112L40 120V128H48L56 136L72 144V152L56 144L64 160L72 168L88 176L96 184V192H88L56 176V184L64 200H72L88 208L104 200V208L88 216H64L48 184L32 152L24 120L8 88L48 48L88 24V16L104 8H136Z" fill="black"/>
</g>
<defs>
<clipPath id="clip0_30_2138">
<rect width="224" height="224" fill="white"/>
</clipPath>
</defs>
</svg>
