<svg width="128" height="128" viewBox="0 0 128 128" fill="none" xmlns="http://www.w3.org/2000/svg">
<g clip-path="url(#clip0_30_2127)">
<path d="M72 0L104 8H112V24L128 40V56V72L120 88V104L112 112L80 128H56L24 112.5L8 96L0 64V48L8 32L24 16V8H32L56 0H72Z" fill="white"/>
<path d="M72 8L104 16V24L108 28.5L112 32L120 40V56V72L112 88V104L80 120H56L32 112L16 96L8 64V48L16 32L24 24L32 16L56 8H64V16L32 24V40L16 48H8L16 56L24 48L40 40V56L24 48L16 56H32L24 64L32 80H24L16 72V80L32 88V96L40 104L56 112H72V104H64L48 96L40 80L56 96H72L56 88L72 80V88H80L72 80V72L88 88L80 96L72 104L80 112L96 104L104 96L96 88V80L104 72H112L104 64L112 48L96 32V22L104 24L72 16H64V8H72Z" fill="black"/>
</g>
<defs>
<clipPath id="clip0_30_2127">
<rect width="128" height="128" fill="white"/>
</clipPath>
</defs>
</svg>
