<svg width="240" height="240" viewBox="0 0 240 240" fill="none" xmlns="http://www.w3.org/2000/svg">
<path d="M103.893 0L144.228 8H175.6H191.535L224 72V104L216 136V152L208 160L184 208L168 216.5L152 232L120 240H88L80 232L64 224L48 208L40 192L32 160L24 144L16 128V96L32 64L48 31.5L103.893 0Z" fill="white"/>
<path d="M104 8L144 16V24H128H120V40L128 48L120 56L112 48L120 40V24L112 32H96L80 24L72 32V48L56 56H52L40 80L32 96V104H40L48 96L56 104L64 96V88H72V96H64V112L72 128L56 136V120L64 112V96L56 104L48 120L40 112V104H32V128L48 160L56 192H72L64 176L72 160L80 176L72 192L80 208L88 216V200L120 192V200L88 208L96 198V216L112 224L120 216V208L136 200L128 192L136 184L144 192H168L176 184V168L168 176L160 168L168 160L176 168H184L192 152L184 144L192 136H200V112L208 104V80L192 72H184L176 88V104L144 112H136L128 96L120 80L136 64L144 56L152 48L144 40L152 32L160 40L152 48L160 56L176 64L184 72H192L200 64L179.5 24H144V16H184.5L200.5 48.5L216 80V104L208 136.5V152H200L184 184L160 215.5L144 224L112 232H96L88 224H72L56 208L48 192L40 160L24 128V96L32 80L56 32L104 8Z" fill="black"/>
</svg>
