<svg width="208" height="208" viewBox="0 0 208 208" fill="none" xmlns="http://www.w3.org/2000/svg">
<path d="M88 8H128L160 16L192 48V96L208 112V128L200 144L184 176L176 192L144 200L88 200.5L72 192L40 176.5L24.5 160.5L16 128L0 112V80.5L16 72V64H24V32L56 16L88 8Z" fill="white"/>
<path d="M88 16H96H104V24H88L72 27L64 32H72H96L88 48L72 56L56 48L64 32L72 27L56 32L40 40V48V64L56 72L48 88V104H64L56 136L64 144.5L88 120L120 112L112 144L120 152L128 144H136L144 176L176 168L168 136L160 152L144 136L152 120L168 128V136L176 168L192 136V120L176 96V56L160 32L128 24H104V16H128L160 24L184 48V96L200 120V136L184 168L176 184L144 192H80L64 184L48 176L40 168L32 152L24 120L8 112V88L16 80L24 72L32 64V32L56 24L88 16Z" fill="black"/>
</svg>
