<svg width="144" height="144" viewBox="0 0 144 144" fill="none" xmlns="http://www.w3.org/2000/svg">
<g clip-path="url(#clip0_30_2148)">
<path d="M56 0H88L104 8L128 32L136 48L144 56V88L136 104L112 128L96 144H56L40 136L24 120L0 96V48L8 32L24 24L40 8L56 0Z" fill="white"/>
<path d="M56 8H72V16H56L40 24L24 40L16 48V72H32L24 80H16V96L24 104L40 112L56 120H80L104 104L112 96H104L96 80L112 88V96L120 88L128 56H120L96 64.5L80 56V48L96 40V64.5L120 56V48L104 24L88 16H72V8H88L104 16L120 32L128 48L136 56V88L128 104L112 120L96 136H56L40 128L24 112L8 96V48V40L24 32L40 16L56 8Z" fill="black"/>
</g>
<defs>
<clipPath id="clip0_30_2148">
<rect width="144" height="144" fill="white"/>
</clipPath>
</defs>
</svg>
