<svg width="5" height="5" viewBox="0 0 5 5" fill="none" xmlns="http://www.w3.org/2000/svg">
<g clip-path="url(#clip0_56_2885)">
<circle cx="2.5" cy="2.5" r="2.5" fill="white"/>
<path d="M4.5 2.5C4.5 3.60457 3.60457 4.5 2.5 4.5C1.39543 4.5 0.5 3.60457 0.5 2.5C0.5 1.39543 1.39543 0.5 2.5 0.5C3.60457 0.5 4.5 1.39543 4.5 2.5Z" fill="#FFCC00"/>
<path d="M4 2.5C4 3.32843 3.32843 4 2.5 4C1.67157 4 1 3.32843 1 2.5C1 1.67157 1.67157 1 2.5 1C3.32843 1 4 1.67157 4 2.5Z" fill="#FFE5A2"/>
<path d="M1.5 1.5H3.5V3.5H1.5V1.5Z" fill="#FFCC00"/>
</g>
<defs>
<clipPath id="clip0_56_2885">
<rect width="5" height="5" fill="white"/>
</clipPath>
</defs>
</svg>
