<svg width="128" height="128" viewBox="0 0 128 128" fill="none" xmlns="http://www.w3.org/2000/svg">
<g clip-path="url(#clip0_35_2365)">
<path d="M56 0H72L76 4L80 20L84 36L88 56L92 60V64V72H120V68L124 64H128V96V104H124L120 100H116L104 104L92 108V128H88L84 124L80 120L76 116V100H72V104H56V100H52V116L48 120L44 124L40 128H36V108L24 104L12 100H8L4 104H0V64H4L8 68V72H36V60L40 56L44 36L48 20L52 4L56 0Z" fill="white"/>
<path d="M56 4L64 0L72 4L76 20L80 36V60L76 68L72 72V72.0315L64 76L56 72L52 68L48 60V36L52 20L56 4Z" fill="black"/>
<path d="M64 80V96H56L48 92L48 116.181L48 88H52V80H48L48 116.181L46 118L44 120H40V60H44L48 67.868L48 76L64 80Z" fill="black"/>
<path d="M64 80V96H72L80 92L80 116.181L80 88H76V80H80L80 116.181L82 118L84 120H88V60H84L80 68V76L64 80Z" fill="black"/>
<path d="M92 76H120L124 72V76V96H116L104 100L92 104V96V76Z" fill="black"/>
<path d="M36 76H8L4 72V76V96H12L24 100L36 104V96V76Z" fill="black"/>
</g>
<defs>
<clipPath id="clip0_35_2365">
<rect width="128" height="128" fill="white"/>
</clipPath>
</defs>
</svg>
