<svg width="80" height="112" viewBox="0 0 80 112" fill="none" xmlns="http://www.w3.org/2000/svg">
<g clip-path="url(#clip0_82_210)">
<rect x="2" y="2" width="76" height="108" rx="14" fill="black" stroke="white" stroke-width="4"/>
<g clip-path="url(#clip1_82_210)">
<rect x="49.5" y="69.5" width="5" height="5" rx="2.5" stroke="white"/>
</g>
<g clip-path="url(#clip2_82_210)">
<rect x="57.5" y="69.5" width="5" height="5" rx="2.5" stroke="white"/>
</g>
<g clip-path="url(#clip3_82_210)">
<rect x="17" y="69" width="6" height="6" rx="3" fill="white"/>
</g>
<g clip-path="url(#clip4_82_210)">
<rect x="25" y="69" width="6" height="6" rx="3" fill="white"/>
</g>
<g clip-path="url(#clip5_82_210)">
<rect x="33" y="69" width="6" height="6" rx="3" fill="white"/>
</g>
<g clip-path="url(#clip6_82_210)">
<rect x="41" y="69" width="6" height="6" rx="3" fill="white"/>
</g>
<path d="M16.46 6.76V8.44H16.04V9.28H15.62V10.12H15.2V10.96H14.78V11.8H14.36V13.06H13.94V16H12.68V12.64H13.1V11.38H13.52V10.54H13.94V9.7H14.36V8.86H14.78V8.02H11V6.76H16.46Z" fill="white"/>
<path d="M40.9333 34.7691V45.923H34.1333L31.8666 43.6922L29.6 41.4614L29.6 41.3112L27.3333 39.2306H29.6L29.6 41.4614H31.8666V43.6922V45.923V50.3845L34.1333 48.1537H38.6667V52.6153H40.9333L43.2 54.846L45.4667 57.0768H47.7333L50 59.3076V63.7691H36.4L34.1333 61.5383L31.8666 59.3076L29.6 61.5383H31.8666V63.7691H29.6H25.0667V61.5383H29.6L31.8666 59.3076H25.0667V54.846V52.6153H27.3333L29.6 50.3845H25.0667H20.5333V48.1537H25.0667L22.8 45.923H18.2667V43.6922H22.8L20.5333 41.4614H16V39.2306H27.3333L22.8 36.9999V34.7691H40.9333Z" fill="white"/>
<rect x="27" y="22" width="30" height="3" fill="white"/>
<rect x="57" y="55" width="30" height="3" transform="rotate(-90 57 55)" fill="white"/>
<path d="M19 23.5L31 19V28L19 23.5Z" fill="white"/>
<path d="M58.5 63L54 53H63L58.5 63Z" fill="white"/>
<path d="M48 22L56 22L59 23L60 26L60 34L57.0001 34.0001L57 28.0002L56.5 25.5L54 25.0002L48.0001 24.9999L48 22Z" fill="white"/>
<path d="M26.97 90.35H27.3V88.37H26.97V88.04H26.64V87.71H25.32V88.04H24.99V90.68H25.32V91.01H26.64V90.68H26.97V90.35ZM28.29 86.72V92H27.3V91.34H26.97V91.67H26.64V92H24.99V91.67H24.66V91.34H24.33V91.01H24V87.71H24.33V87.38H24.66V87.05H24.99V86.72H26.64V87.05H26.97V87.38H27.3V86.72H28.29ZM30.2721 89.03H32.2521V87.71H30.2721V88.04H29.9421V88.7H30.2721V89.03ZM29.9421 92V91.01H31.9221V90.68H32.2521V90.02H29.9421V89.69H29.6121V89.36H29.2821V89.03H28.9521V87.71H29.2821V87.38H29.6121V87.05H29.9421V86.72H33.2421V91.01H32.9121V91.34H32.5821V91.67H32.2521V92H29.9421ZM38.1943 91.01V92H33.9043V91.01H35.5543V87.71H34.8943V86.72H36.5443V91.01H38.1943ZM36.5443 84.74V85.73H35.5543V84.74H36.5443ZM43.1464 91.01V92H40.8364V91.67H40.5064V91.34H40.1764V91.01H39.8464V85.73H38.8564V84.74H40.8364V90.68H41.1664V91.01H43.1464ZM48.0986 91.01V92H43.8086V91.01H45.4586V87.71H44.7986V86.72H46.4486V91.01H48.0986ZM46.4486 84.74V85.73H45.4586V84.74H46.4486ZM53.0507 90.35V91.01H52.7207V91.34H52.3907V91.67H52.0607V92H50.0807V91.67H49.7507V91.34H49.4207V91.01H49.0907V90.68H48.7607V86.06H49.7507V87.38H52.7207V88.37H49.7507V90.35H50.0807V90.68H50.4107V91.01H51.7307V90.68H52.0607V90.35H53.0507ZM58.0029 86.72V91.01H57.6729V91.34H57.3429V91.67H57.0129V92H54.3729V91.67H54.0429V91.34H53.7129V90.68H54.7029V91.01H56.6829V90.68H57.0129V89.36H56.6829V89.69H56.3529V90.02H54.7029V89.69H54.3729V89.36H54.0429V89.03H53.7129V86.72H54.7029V88.7H55.0329V89.03H56.3529V88.7H56.6829V88.37H57.0129V86.72H58.0029Z" fill="white"/>
</g>
<defs>
<clipPath id="clip0_82_210">
<rect width="80" height="112" fill="white"/>
</clipPath>
<clipPath id="clip1_82_210">
<rect width="6" height="6" fill="white" transform="translate(49 69)"/>
</clipPath>
<clipPath id="clip2_82_210">
<rect width="6" height="6" fill="white" transform="translate(57 69)"/>
</clipPath>
<clipPath id="clip3_82_210">
<rect width="6" height="6" fill="white" transform="translate(17 69)"/>
</clipPath>
<clipPath id="clip4_82_210">
<rect width="6" height="6" fill="white" transform="translate(25 69)"/>
</clipPath>
<clipPath id="clip5_82_210">
<rect width="6" height="6" fill="white" transform="translate(33 69)"/>
</clipPath>
<clipPath id="clip6_82_210">
<rect width="6" height="6" fill="white" transform="translate(41 69)"/>
</clipPath>
</defs>
</svg>
