<svg width="80" height="112" viewBox="0 0 80 112" fill="none" xmlns="http://www.w3.org/2000/svg">
<g clip-path="url(#clip0_82_169)">
<rect x="2" y="2" width="76" height="108" rx="14" fill="black" stroke="white" stroke-width="4"/>
<g clip-path="url(#clip1_82_169)">
<rect x="49.5" y="69.5" width="5" height="5" rx="2.5" stroke="white"/>
</g>
<g clip-path="url(#clip2_82_169)">
<rect x="57.5" y="69.5" width="5" height="5" rx="2.5" stroke="white"/>
</g>
<g clip-path="url(#clip3_82_169)">
<rect x="17" y="69" width="6" height="6" rx="3" fill="white"/>
</g>
<g clip-path="url(#clip4_82_169)">
<rect x="25" y="69" width="6" height="6" rx="3" fill="white"/>
</g>
<g clip-path="url(#clip5_82_169)">
<rect x="33" y="69" width="6" height="6" rx="3" fill="white"/>
</g>
<g clip-path="url(#clip6_82_169)">
<rect x="41" y="69" width="6" height="6" rx="3" fill="white"/>
</g>
<path d="M16.46 11.38V14.74H16.04V15.16H15.62V15.58H15.2V16H11.84V15.58H11.42V15.16H11V14.32H12.26V14.74H14.78V14.32H15.2V11.8H14.78V11.38H11V6.76H16.46V8.02H12.26V10.12H15.2V10.54H15.62V10.96H16.04V11.38H16.46Z" fill="white"/>
<path d="M36 21H40H44L46 22L48 23L50 25V64H30V25L32 23L34 22L36 21Z" fill="white"/>
<rect x="30" y="56" width="20" height="4" fill="black"/>
<g clip-path="url(#clip7_82_169)">
<path d="M28 40L40 52V56H36V64H20V56H16V52L28 40Z" fill="black"/>
<path d="M28 44L36 52H32V60H24V52H20L28 44Z" fill="white"/>
</g>
<path d="M20.97 90.68H21.3V88.04H20.97V87.71H19.65V88.04H19.32V88.37H18.99V90.35H19.32V90.68H19.65V91.01H20.97V90.68ZM22.29 87.71V91.01H21.96V91.34H21.63V91.67H21.3V92H19.65V91.67H19.32V91.34H18.99V92H18V84.74H18.99V87.38H19.32V87.05H19.65V86.72H21.3V87.05H21.63V87.38H21.96V87.71H22.29ZM27.2421 91.01V92H24.9321V91.67H24.6021V91.34H24.2721V91.01H23.9421V85.73H22.9521V84.74H24.9321V90.68H25.2621V91.01H27.2421ZM35.8264 90.35H36.1564V88.37H35.8264V88.04H35.4964V87.71H34.1764V88.04H33.8464V90.68H34.1764V91.01H35.4964V90.68H35.8264V90.35ZM37.1464 84.74V92H36.1564V91.34H35.8264V91.67H35.4964V92H33.8464V91.67H33.5164V91.34H33.1864V91.01H32.8564V87.71H33.1864V87.38H33.5164V87.05H33.8464V86.72H35.4964V87.05H35.8264V87.38H36.1564V84.74H37.1464ZM40.7786 90.35H41.1086V88.37H40.7786V88.04H40.4486V87.71H39.1286V88.04H38.7986V90.68H39.1286V91.01H40.4486V90.68H40.7786V90.35ZM42.0986 86.72V92H41.1086V91.34H40.7786V91.67H40.4486V92H38.7986V91.67H38.4686V91.34H38.1386V91.01H37.8086V87.71H38.1386V87.38H38.4686V87.05H38.7986V86.72H40.4486V87.05H40.7786V87.38H41.1086V86.72H42.0986ZM47.0507 87.38V92H46.0607V88.04H45.7307V87.71H45.4007V90.02H44.4107V88.04H44.0807V87.71H43.7507V92H42.7607V86.72H43.7507V87.05H44.0807V86.72H44.7407V87.05H45.0707V87.38H45.4007V87.05H45.7307V86.72H46.3907V87.05H46.7207V87.38H47.0507ZM51.3382 90.35H51.6682V88.37H51.3382V88.04H51.0082V87.71H49.6882V88.04H49.3582V90.68H49.6882V91.01H51.0082V90.68H51.3382V90.35ZM52.6582 86.72V92H51.6682V91.34H51.3382V91.67H51.0082V92H49.3582V91.67H49.0282V91.34H48.6982V91.01H48.3682V87.71H48.6982V87.38H49.0282V87.05H49.3582V86.72H51.0082V87.05H51.3382V87.38H51.6682V86.72H52.6582ZM54.6403 89.03H56.6203V87.71H54.6403V88.04H54.3103V88.7H54.6403V89.03ZM54.3103 92V91.01H56.2903V90.68H56.6203V90.02H54.3103V89.69H53.9803V89.36H53.6503V89.03H53.3203V87.71H53.6503V87.38H53.9803V87.05H54.3103V86.72H57.6103V91.01H57.2803V91.34H56.9503V91.67H56.6203V92H54.3103ZM59.2625 89.03H61.5725V88.04H61.2425V87.71H59.5925V88.04H59.2625V89.03ZM62.5625 87.71V89.36H62.2325V89.69H61.9025V90.02H59.2625V90.68H59.5925V91.01H62.2325V92H59.2625V91.67H58.9325V91.34H58.6025V91.01H58.2725V87.71H58.6025V87.38H58.9325V87.05H59.2625V86.72H61.5725V87.05H61.9025V87.38H62.2325V87.71H62.5625Z" fill="white"/>
</g>
<defs>
<clipPath id="clip0_82_169">
<rect width="80" height="112" fill="white"/>
</clipPath>
<clipPath id="clip1_82_169">
<rect width="6" height="6" fill="white" transform="translate(49 69)"/>
</clipPath>
<clipPath id="clip2_82_169">
<rect width="6" height="6" fill="white" transform="translate(57 69)"/>
</clipPath>
<clipPath id="clip3_82_169">
<rect width="6" height="6" fill="white" transform="translate(17 69)"/>
</clipPath>
<clipPath id="clip4_82_169">
<rect width="6" height="6" fill="white" transform="translate(25 69)"/>
</clipPath>
<clipPath id="clip5_82_169">
<rect width="6" height="6" fill="white" transform="translate(33 69)"/>
</clipPath>
<clipPath id="clip6_82_169">
<rect width="6" height="6" fill="white" transform="translate(41 69)"/>
</clipPath>
<clipPath id="clip7_82_169">
<rect width="24" height="24" fill="white" transform="translate(16 40)"/>
</clipPath>
</defs>
</svg>
