<svg width="80" height="112" viewBox="0 0 80 112" fill="none" xmlns="http://www.w3.org/2000/svg">
<g clip-path="url(#clip0_82_120)">
<rect x="2" y="2" width="76" height="108" rx="14" fill="black" stroke="white" stroke-width="4"/>
<g clip-path="url(#clip1_82_120)">
<rect x="49.5" y="69.5" width="5" height="5" rx="2.5" stroke="white"/>
</g>
<g clip-path="url(#clip2_82_120)">
<rect x="57.5" y="69.5" width="5" height="5" rx="2.5" stroke="white"/>
</g>
<g clip-path="url(#clip3_82_120)">
<rect x="17" y="69" width="6" height="6" rx="3" fill="white"/>
</g>
<g clip-path="url(#clip4_82_120)">
<rect x="25" y="69" width="6" height="6" rx="3" fill="white"/>
</g>
<g clip-path="url(#clip5_82_120)">
<rect x="33" y="69" width="6" height="6" rx="3" fill="white"/>
</g>
<g clip-path="url(#clip6_82_120)">
<rect x="41" y="69" width="6" height="6" rx="3" fill="white"/>
</g>
<path d="M16.46 12.22V14.74H16.04V15.16H15.62V15.58H15.2V16H12.26V15.58H11.84V15.16H11.42V14.74H11V13.48H12.26V14.32H12.68V14.74H14.78V14.32H15.2V12.64H14.78V12.22H14.36V11.8H13.94V11.38H13.52V10.96H13.1V10.54H12.68V10.12H13.1V9.7H13.52V9.28H13.94V8.86H14.36V8.44H14.78V8.02H11V6.76H16.46V8.44H16.04V8.86H15.62V9.28H15.2V9.7H14.78V10.12H14.36V10.54H14.78V10.96H15.2V11.38H15.62V11.8H16.04V12.22H16.46Z" fill="white"/>
<path d="M36 21H40H44L46 22L48 23L50 25V64H30V25L32 23L34 22L36 21Z" fill="white"/>
<rect x="30" y="56" width="20" height="4" fill="black"/>
<path d="M20 44L24 40H32L36 44L40 48V56L36 60L32 64H24L20 60L16 56V48L20 44Z" fill="black"/>
<path d="M22.6667 46.6667L25.3333 44H30.6667L33.3333 46.6667L36 49.3333V54.6667L33.3333 57.3333L30.6667 60H25.3333L22.6667 57.3333L20 54.6667V49.3333L22.6667 46.6667Z" fill="white"/>
<rect x="26" y="46" width="4" height="8" fill="black"/>
<path d="M26.0718 53.9641L28.0718 50.5L33.2679 53.5L31.2679 56.9641L26.0718 53.9641Z" fill="black"/>
<path d="M20.97 90.68H21.3V88.04H20.97V87.71H19.65V88.04H19.32V88.37H18.99V90.35H19.32V90.68H19.65V91.01H20.97V90.68ZM22.29 87.71V91.01H21.96V91.34H21.63V91.67H21.3V92H19.65V91.67H19.32V91.34H18.99V92H18V84.74H18.99V87.38H19.32V87.05H19.65V86.72H21.3V87.05H21.63V87.38H21.96V87.71H22.29ZM27.2421 91.01V92H24.9321V91.67H24.6021V91.34H24.2721V91.01H23.9421V85.73H22.9521V84.74H24.9321V90.68H25.2621V91.01H27.2421ZM37.1464 87.05V88.04H36.4864V87.71H34.1764V88.04H33.8464V92H32.8564V87.71H33.1864V87.38H33.5164V87.05H33.8464V86.72H36.8164V87.05H37.1464ZM38.7986 89.03H41.1086V88.04H40.7786V87.71H39.1286V88.04H38.7986V89.03ZM42.0986 87.71V89.36H41.7686V89.69H41.4386V90.02H38.7986V90.68H39.1286V91.01H41.7686V92H38.7986V91.67H38.4686V91.34H38.1386V91.01H37.8086V87.71H38.1386V87.38H38.4686V87.05H38.7986V86.72H41.1086V87.05H41.4386V87.38H41.7686V87.71H42.0986ZM47.0507 91.01V92H44.7407V91.67H44.4107V91.34H44.0807V91.01H43.7507V85.73H42.7607V84.74H44.7407V90.68H45.0707V91.01H47.0507ZM50.6829 90.35H51.0129V88.37H50.6829V88.04H50.3529V87.71H49.3629V88.04H49.0329V88.37H48.7029V90.35H49.0329V90.68H49.3629V91.01H50.3529V90.68H50.6829V90.35ZM52.0029 88.04V90.68H51.6729V91.01H51.3429V91.34H51.0129V91.67H50.6829V92H49.0329V91.67H48.7029V91.34H48.3729V91.01H48.0429V90.68H47.7129V88.04H48.0429V87.71H48.3729V87.38H48.7029V87.05H49.0329V86.72H50.6829V87.05H51.0129V87.38H51.3429V87.71H51.6729V88.04H52.0029ZM55.635 90.35H55.965V88.37H55.635V88.04H55.305V87.71H53.985V88.04H53.655V90.68H53.985V91.01H55.305V90.68H55.635V90.35ZM56.955 86.72V92H55.965V91.34H55.635V91.67H55.305V92H53.655V91.67H53.325V91.34H52.995V91.01H52.665V87.71H52.995V87.38H53.325V87.05H53.655V86.72H55.305V87.05H55.635V87.38H55.965V86.72H56.955ZM60.5872 90.35H60.9172V88.37H60.5872V88.04H60.2572V87.71H58.9372V88.04H58.6072V90.68H58.9372V91.01H60.2572V90.68H60.5872V90.35ZM61.9072 84.74V92H60.9172V91.34H60.5872V91.67H60.2572V92H58.6072V91.67H58.2772V91.34H57.9472V91.01H57.6172V87.71H57.9472V87.38H58.2772V87.05H58.6072V86.72H60.2572V87.05H60.5872V87.38H60.9172V84.74H61.9072Z" fill="white"/>
</g>
<defs>
<clipPath id="clip0_82_120">
<rect width="80" height="112" fill="white"/>
</clipPath>
<clipPath id="clip1_82_120">
<rect width="6" height="6" fill="white" transform="translate(49 69)"/>
</clipPath>
<clipPath id="clip2_82_120">
<rect width="6" height="6" fill="white" transform="translate(57 69)"/>
</clipPath>
<clipPath id="clip3_82_120">
<rect width="6" height="6" fill="white" transform="translate(17 69)"/>
</clipPath>
<clipPath id="clip4_82_120">
<rect width="6" height="6" fill="white" transform="translate(25 69)"/>
</clipPath>
<clipPath id="clip5_82_120">
<rect width="6" height="6" fill="white" transform="translate(33 69)"/>
</clipPath>
<clipPath id="clip6_82_120">
<rect width="6" height="6" fill="white" transform="translate(41 69)"/>
</clipPath>
</defs>
</svg>
