<svg width="80" height="112" viewBox="0 0 80 112" fill="none" xmlns="http://www.w3.org/2000/svg">
<g clip-path="url(#clip0_82_143)">
<rect x="2" y="2" width="76" height="108" rx="14" fill="black" stroke="white" stroke-width="4"/>
<g clip-path="url(#clip1_82_143)">
<rect x="49.5" y="69.5" width="5" height="5" rx="2.5" stroke="white"/>
</g>
<g clip-path="url(#clip2_82_143)">
<rect x="57.5" y="69.5" width="5" height="5" rx="2.5" stroke="white"/>
</g>
<g clip-path="url(#clip3_82_143)">
<rect x="17" y="69" width="6" height="6" rx="3" fill="white"/>
</g>
<g clip-path="url(#clip4_82_143)">
<rect x="25" y="69" width="6" height="6" rx="3" fill="white"/>
</g>
<g clip-path="url(#clip5_82_143)">
<rect x="33" y="69" width="6" height="6" rx="3" fill="white"/>
</g>
<g clip-path="url(#clip6_82_143)">
<rect x="41" y="69" width="6" height="6" rx="3" fill="white"/>
</g>
<path d="M12.68 13.06H14.36V9.7H13.94V10.54H13.52V11.38H13.1V12.22H12.68V13.06ZM16.46 13.06V14.32H15.62V16H14.36V14.32H11V13.9V13.48H11.42V12.64H11.84V11.8H12.26V10.96H12.68V10.12H13.1V9.28H13.52V8.44H13.94V7.6H14.36V6.76H15.62V13.06H16.46Z" fill="white"/>
<path d="M22.97 90.68H23.3V88.04H22.97V87.71H21.65V88.04H21.32V88.37H20.99V90.35H21.32V90.68H21.65V91.01H22.97V90.68ZM24.29 87.71V91.01H23.96V91.34H23.63V91.67H23.3V92H21.65V91.67H21.32V91.34H20.99V92H20V84.74H20.99V87.38H21.32V87.05H21.65V86.72H23.3V87.05H23.63V87.38H23.96V87.71H24.29ZM29.2421 91.01V92H26.9321V91.67H26.6021V91.34H26.2721V91.01H25.9421V85.73H24.9521V84.74H26.9321V90.68H27.2621V91.01H29.2421ZM39.1464 89.69V91.01H38.8164V91.34H38.4864V91.67H38.1564V92H35.8464V91.67H35.5164V91.34H35.1864V91.01H34.8564V90.35H35.8464V90.68H36.1764V91.01H37.8264V90.68H38.1564V90.02H37.8264V89.69H35.8464V89.36H35.5164V89.03H35.1864V88.7H34.8564V87.71H35.1864V87.38H35.5164V87.05H35.8464V86.72H38.4864V87.05H38.8164V87.38H39.1464V88.04H38.1564V87.71H36.1764V88.04H35.8464V88.37H36.1764V88.7H38.1564V89.03H38.4864V89.36H38.8164V89.69H39.1464ZM42.7786 89.36H43.1086V88.04H42.7786V87.71H41.4586V88.04H41.1286V88.37H40.7986V89.03H41.1286V89.36H41.4586V89.69H42.7786V89.36ZM44.0986 87.71V89.69H43.7686V90.02H43.4386V90.35H43.1086V90.68H41.4586V90.35H41.1286V90.02H40.7986V92H39.8086V86.72H40.7986V87.38H41.1286V87.05H41.4586V86.72H43.1086V87.05H43.4386V87.38H43.7686V87.71H44.0986ZM45.7507 89.03H48.0607V88.04H47.7307V87.71H46.0807V88.04H45.7507V89.03ZM49.0507 87.71V89.36H48.7207V89.69H48.3907V90.02H45.7507V90.68H46.0807V91.01H48.7207V92H45.7507V91.67H45.4207V91.34H45.0907V91.01H44.7607V87.71H45.0907V87.38H45.4207V87.05H45.7507V86.72H48.0607V87.05H48.3907V87.38H48.7207V87.71H49.0507ZM50.7029 89.03H53.0129V88.04H52.6829V87.71H51.0329V88.04H50.7029V89.03ZM54.0029 87.71V89.36H53.6729V89.69H53.3429V90.02H50.7029V90.68H51.0329V91.01H53.6729V92H50.7029V91.67H50.3729V91.34H50.0429V91.01H49.7129V87.71H50.0429V87.38H50.3729V87.05H50.7029V86.72H53.0129V87.05H53.3429V87.38H53.6729V87.71H54.0029ZM57.635 90.35H57.965V88.37H57.635V88.04H57.305V87.71H55.985V88.04H55.655V90.68H55.985V91.01H57.305V90.68H57.635V90.35ZM58.955 84.74V92H57.965V91.34H57.635V91.67H57.305V92H55.655V91.67H55.325V91.34H54.995V91.01H54.665V87.71H54.995V87.38H55.325V87.05H55.655V86.72H57.305V87.05H57.635V87.38H57.965V84.74H58.955Z" fill="white"/>
<path d="M44 21H48H52L54 22L56 23L58 25V64H38V25L40 23L42 22L44 21Z" fill="white"/>
<rect x="38" y="56" width="20" height="4" fill="black"/>
<g clip-path="url(#clip7_82_143)">
<path d="M16 40H32L40 52L32 64H16L24 52L16 40Z" fill="black"/>
<path d="M22 44H30L36 52L30 60H22L28 52L22 44Z" fill="white"/>
</g>
<g clip-path="url(#clip8_82_143)">
<path d="M28 40H44L52 52L44 64H28L36 52L28 40Z" fill="black"/>
<path d="M34 44H42L48 52L42 60H34L40 52L34 44Z" fill="white"/>
</g>
</g>
<defs>
<clipPath id="clip0_82_143">
<rect width="80" height="112" fill="white"/>
</clipPath>
<clipPath id="clip1_82_143">
<rect width="6" height="6" fill="white" transform="translate(49 69)"/>
</clipPath>
<clipPath id="clip2_82_143">
<rect width="6" height="6" fill="white" transform="translate(57 69)"/>
</clipPath>
<clipPath id="clip3_82_143">
<rect width="6" height="6" fill="white" transform="translate(17 69)"/>
</clipPath>
<clipPath id="clip4_82_143">
<rect width="6" height="6" fill="white" transform="translate(25 69)"/>
</clipPath>
<clipPath id="clip5_82_143">
<rect width="6" height="6" fill="white" transform="translate(33 69)"/>
</clipPath>
<clipPath id="clip6_82_143">
<rect width="6" height="6" fill="white" transform="translate(41 69)"/>
</clipPath>
<clipPath id="clip7_82_143">
<rect width="24" height="24" fill="white" transform="translate(16 40)"/>
</clipPath>
<clipPath id="clip8_82_143">
<rect width="24" height="24" fill="white" transform="translate(28 40)"/>
</clipPath>
</defs>
</svg>
