<svg width="80" height="112" viewBox="0 0 80 112" fill="none" xmlns="http://www.w3.org/2000/svg">
<g clip-path="url(#clip0_82_233)">
<rect x="2" y="2" width="76" height="108" rx="14" fill="black" stroke="white" stroke-width="4"/>
<g clip-path="url(#clip1_82_233)">
<rect x="49.5" y="69.5" width="5" height="5" rx="2.5" stroke="white"/>
</g>
<g clip-path="url(#clip2_82_233)">
<rect x="57.5" y="69.5" width="5" height="5" rx="2.5" stroke="white"/>
</g>
<g clip-path="url(#clip3_82_233)">
<rect x="17" y="69" width="6" height="6" rx="3" fill="white"/>
</g>
<g clip-path="url(#clip4_82_233)">
<rect x="25" y="69" width="6" height="6" rx="3" fill="white"/>
</g>
<g clip-path="url(#clip5_82_233)">
<rect x="33" y="69" width="6" height="6" rx="3" fill="white"/>
</g>
<g clip-path="url(#clip6_82_233)">
<rect x="41" y="69" width="6" height="6" rx="3" fill="white"/>
</g>
<path d="M14.78 14.32H15.2V12.22H14.78V11.8H12.68V12.22H12.26V14.32H12.68V14.74H14.78V14.32ZM14.78 10.12H15.2V8.44H14.78V8.02H12.68V8.44H12.26V10.12H12.68V10.54H14.78V10.12ZM16.46 11.8V14.74H16.04V15.16H15.62V15.58H15.2V16H12.26V15.58H11.84V15.16H11.42V14.74H11V11.8H11.42V11.38H11.84V10.96H11.42V10.54H11V8.02H11.42V7.6H11.84V7.18H12.26V6.76H15.2V7.18H15.62V7.6H16.04V8.02H16.46V10.54H16.04V10.96H15.62V11.38H16.04V11.8H16.46Z" fill="white"/>
<rect width="48" height="44" transform="translate(16 24)" fill="black"/>
<path d="M40 24L52 36L56 32V44L64 52V64L56 60L48 64V56H44L40 60L36 56H32V64L24 60L16 64V52L24 44V32L28 36L40 24Z" fill="white"/>
<g clip-path="url(#clip7_82_233)">
<path d="M28 40L40 52V56H36V64H20V56H16V52L28 40Z" fill="black"/>
<path d="M28 44L36 52H32V60H24V52H20L28 44Z" fill="white"/>
</g>
<path d="M15.97 90.68H16.3V88.04H15.97V87.71H14.65V88.04H14.32V88.37H13.99V90.35H14.32V90.68H14.65V91.01H15.97V90.68ZM17.29 87.71V91.01H16.96V91.34H16.63V91.67H16.3V92H14.65V91.67H14.32V91.34H13.99V92H13V84.74H13.99V87.38H14.32V87.05H14.65V86.72H16.3V87.05H16.63V87.38H16.96V87.71H17.29ZM20.9221 90.35H21.2521V88.37H20.9221V88.04H20.5921V87.71H19.6021V88.04H19.2721V88.37H18.9421V90.35H19.2721V90.68H19.6021V91.01H20.5921V90.68H20.9221V90.35ZM22.2421 88.04V90.68H21.9121V91.01H21.5821V91.34H21.2521V91.67H20.9221V92H19.2721V91.67H18.9421V91.34H18.6121V91.01H18.2821V90.68H17.9521V88.04H18.2821V87.71H18.6121V87.38H18.9421V87.05H19.2721V86.72H20.9221V87.05H21.2521V87.38H21.5821V87.71H21.9121V88.04H22.2421ZM25.8743 90.35H26.2043V88.37H25.8743V88.04H25.5443V87.71H24.2243V88.04H23.8943V90.68H24.2243V91.01H25.5443V90.68H25.8743V90.35ZM27.1943 84.74V92H26.2043V91.34H25.8743V91.67H25.5443V92H23.8943V91.67H23.5643V91.34H23.2343V91.01H22.9043V87.71H23.2343V87.38H23.5643V87.05H23.8943V86.72H25.5443V87.05H25.8743V87.38H26.2043V84.74H27.1943ZM32.1464 86.72V91.01H31.8164V91.34H31.4864V91.67H31.1564V92H28.5164V91.67H28.1864V91.34H27.8564V90.68H28.8464V91.01H30.8264V90.68H31.1564V89.36H30.8264V89.69H30.4964V90.02H28.8464V89.69H28.5164V89.36H28.1864V89.03H27.8564V86.72H28.8464V88.7H29.1764V89.03H30.4964V88.7H30.8264V88.37H31.1564V86.72H32.1464ZM40.7307 90.35H41.0607V88.37H40.7307V88.04H40.4007V87.71H39.0807V88.04H38.7507V90.68H39.0807V91.01H40.4007V90.68H40.7307V90.35ZM42.0507 84.74V92H41.0607V91.34H40.7307V91.67H40.4007V92H38.7507V91.67H38.4207V91.34H38.0907V91.01H37.7607V87.71H38.0907V87.38H38.4207V87.05H38.7507V86.72H40.4007V87.05H40.7307V87.38H41.0607V84.74H42.0507ZM45.6829 90.35H46.0129V88.37H45.6829V88.04H45.3529V87.71H44.0329V88.04H43.7029V90.68H44.0329V91.01H45.3529V90.68H45.6829V90.35ZM47.0029 86.72V92H46.0129V91.34H45.6829V91.67H45.3529V92H43.7029V91.67H43.3729V91.34H43.0429V91.01H42.7129V87.71H43.0429V87.38H43.3729V87.05H43.7029V86.72H45.3529V87.05H45.6829V87.38H46.0129V86.72H47.0029ZM51.955 87.38V92H50.965V88.04H50.635V87.71H50.305V90.02H49.315V88.04H48.985V87.71H48.655V92H47.665V86.72H48.655V87.05H48.985V86.72H49.645V87.05H49.975V87.38H50.305V87.05H50.635V86.72H51.295V87.05H51.625V87.38H51.955ZM56.2425 90.35H56.5725V88.37H56.2425V88.04H55.9125V87.71H54.5925V88.04H54.2625V90.68H54.5925V91.01H55.9125V90.68H56.2425V90.35ZM57.5625 86.72V92H56.5725V91.34H56.2425V91.67H55.9125V92H54.2625V91.67H53.9325V91.34H53.6025V91.01H53.2725V87.71H53.6025V87.38H53.9325V87.05H54.2625V86.72H55.9125V87.05H56.2425V87.38H56.5725V86.72H57.5625ZM59.5446 89.03H61.5246V87.71H59.5446V88.04H59.2146V88.7H59.5446V89.03ZM59.2146 92V91.01H61.1946V90.68H61.5246V90.02H59.2146V89.69H58.8846V89.36H58.5546V89.03H58.2246V87.71H58.5546V87.38H58.8846V87.05H59.2146V86.72H62.5146V91.01H62.1846V91.34H61.8546V91.67H61.5246V92H59.2146ZM64.1668 89.03H66.4768V88.04H66.1468V87.71H64.4968V88.04H64.1668V89.03ZM67.4668 87.71V89.36H67.1368V89.69H66.8068V90.02H64.1668V90.68H64.4968V91.01H67.1368V92H64.1668V91.67H63.8368V91.34H63.5068V91.01H63.1768V87.71H63.5068V87.38H63.8368V87.05H64.1668V86.72H66.4768V87.05H66.8068V87.38H67.1368V87.71H67.4668Z" fill="white"/>
</g>
<defs>
<clipPath id="clip0_82_233">
<rect width="80" height="112" fill="white"/>
</clipPath>
<clipPath id="clip1_82_233">
<rect width="6" height="6" fill="white" transform="translate(49 69)"/>
</clipPath>
<clipPath id="clip2_82_233">
<rect width="6" height="6" fill="white" transform="translate(57 69)"/>
</clipPath>
<clipPath id="clip3_82_233">
<rect width="6" height="6" fill="white" transform="translate(17 69)"/>
</clipPath>
<clipPath id="clip4_82_233">
<rect width="6" height="6" fill="white" transform="translate(25 69)"/>
</clipPath>
<clipPath id="clip5_82_233">
<rect width="6" height="6" fill="white" transform="translate(33 69)"/>
</clipPath>
<clipPath id="clip6_82_233">
<rect width="6" height="6" fill="white" transform="translate(41 69)"/>
</clipPath>
<clipPath id="clip7_82_233">
<rect width="24" height="24" fill="white" transform="translate(16 40)"/>
</clipPath>
</defs>
</svg>
