<svg width="80" height="112" viewBox="0 0 80 112" fill="none" xmlns="http://www.w3.org/2000/svg">
<g clip-path="url(#clip0_82_256)">
<rect x="2" y="2" width="76" height="108" rx="14" fill="black" stroke="white" stroke-width="4"/>
<g clip-path="url(#clip1_82_256)">
<rect x="49.5" y="69.5" width="5" height="5" rx="2.5" stroke="white"/>
</g>
<g clip-path="url(#clip2_82_256)">
<rect x="57.5" y="69.5" width="5" height="5" rx="2.5" stroke="white"/>
</g>
<g clip-path="url(#clip3_82_256)">
<rect x="17" y="69" width="6" height="6" rx="3" fill="white"/>
</g>
<g clip-path="url(#clip4_82_256)">
<rect x="25" y="69" width="6" height="6" rx="3" fill="white"/>
</g>
<g clip-path="url(#clip5_82_256)">
<rect x="33" y="69" width="6" height="6" rx="3" fill="white"/>
</g>
<g clip-path="url(#clip6_82_256)">
<rect x="41" y="69" width="6" height="6" rx="3" fill="white"/>
</g>
<path d="M14.78 10.54H15.2V8.44H14.78V8.02H12.68V8.44H12.26V10.54H12.68V10.96H14.78V10.54ZM16.46 8.02V11.8H16.04V12.64H15.62V13.06H15.2V13.48H14.78V13.9H14.36V14.32H13.94V14.74H13.52V15.16H13.1V15.58H12.68V16H11.42V15.16H11.84V14.74H12.26V14.32H12.68V13.9H13.1V13.48H13.52V13.06H13.94V12.64H14.36V12.22H12.26V11.8H11.84V11.38H11.42V10.96H11V8.02H11.42V7.6H11.84V7.18H12.26V6.76H15.2V7.18H15.62V7.6H16.04V8.02H16.46Z" fill="white"/>
<rect width="48" height="44" transform="translate(16 24)" fill="black"/>
<path d="M40 24L52 36L56 32V44L64 52V64L56 60L48 64V56H44L40 60L36 56H32V64L24 60L16 64V52L24 44V32L28 36L40 24Z" fill="white"/>
<g clip-path="url(#clip7_82_256)">
<path d="M36.6094 45.3115L33.2822 58.6221L27 61.7637L20.7168 58.6221L17.3896 45.3115L27 42.1084L36.6094 45.3115Z" fill="white" stroke="black" stroke-width="4"/>
</g>
<path d="M15.97 90.68H16.3V88.04H15.97V87.71H14.65V88.04H14.32V88.37H13.99V90.35H14.32V90.68H14.65V91.01H15.97V90.68ZM17.29 87.71V91.01H16.96V91.34H16.63V91.67H16.3V92H14.65V91.67H14.32V91.34H13.99V92H13V84.74H13.99V87.38H14.32V87.05H14.65V86.72H16.3V87.05H16.63V87.38H16.96V87.71H17.29ZM20.9221 90.35H21.2521V88.37H20.9221V88.04H20.5921V87.71H19.6021V88.04H19.2721V88.37H18.9421V90.35H19.2721V90.68H19.6021V91.01H20.5921V90.68H20.9221V90.35ZM22.2421 88.04V90.68H21.9121V91.01H21.5821V91.34H21.2521V91.67H20.9221V92H19.2721V91.67H18.9421V91.34H18.6121V91.01H18.2821V90.68H17.9521V88.04H18.2821V87.71H18.6121V87.38H18.9421V87.05H19.2721V86.72H20.9221V87.05H21.2521V87.38H21.5821V87.71H21.9121V88.04H22.2421ZM25.8743 90.35H26.2043V88.37H25.8743V88.04H25.5443V87.71H24.2243V88.04H23.8943V90.68H24.2243V91.01H25.5443V90.68H25.8743V90.35ZM27.1943 84.74V92H26.2043V91.34H25.8743V91.67H25.5443V92H23.8943V91.67H23.5643V91.34H23.2343V91.01H22.9043V87.71H23.2343V87.38H23.5643V87.05H23.8943V86.72H25.5443V87.05H25.8743V87.38H26.2043V84.74H27.1943ZM32.1464 86.72V91.01H31.8164V91.34H31.4864V91.67H31.1564V92H28.5164V91.67H28.1864V91.34H27.8564V90.68H28.8464V91.01H30.8264V90.68H31.1564V89.36H30.8264V89.69H30.4964V90.02H28.8464V89.69H28.5164V89.36H28.1864V89.03H27.8564V86.72H28.8464V88.7H29.1764V89.03H30.4964V88.7H30.8264V88.37H31.1564V86.72H32.1464ZM42.0507 89.69V91.01H41.7207V91.34H41.3907V91.67H41.0607V92H38.7507V91.67H38.4207V91.34H38.0907V91.01H37.7607V90.35H38.7507V90.68H39.0807V91.01H40.7307V90.68H41.0607V90.02H40.7307V89.69H38.7507V89.36H38.4207V89.03H38.0907V88.7H37.7607V87.71H38.0907V87.38H38.4207V87.05H38.7507V86.72H41.3907V87.05H41.7207V87.38H42.0507V88.04H41.0607V87.71H39.0807V88.04H38.7507V88.37H39.0807V88.7H41.0607V89.03H41.3907V89.36H41.7207V89.69H42.0507ZM47.0029 87.71V92H46.0129V88.04H45.6829V87.71H44.3629V88.04H44.0329V88.37H43.7029V92H42.7129V84.74H43.7029V87.38H44.0329V87.05H44.3629V86.72H46.0129V87.05H46.3429V87.38H46.6729V87.71H47.0029ZM51.955 91.01V92H47.665V91.01H49.315V87.71H48.655V86.72H50.305V91.01H51.955ZM50.305 84.74V85.73H49.315V84.74H50.305ZM53.6072 89.03H55.9172V88.04H55.5872V87.71H53.9372V88.04H53.6072V89.03ZM56.9072 87.71V89.36H56.5772V89.69H56.2472V90.02H53.6072V90.68H53.9372V91.01H56.5772V92H53.6072V91.67H53.2772V91.34H52.9472V91.01H52.6172V87.71H52.9472V87.38H53.2772V87.05H53.6072V86.72H55.9172V87.05H56.2472V87.38H56.5772V87.71H56.9072ZM61.8593 91.01V92H59.5493V91.67H59.2193V91.34H58.8893V91.01H58.5593V85.73H57.5693V84.74H59.5493V90.68H59.8793V91.01H61.8593ZM65.4915 90.35H65.8215V88.37H65.4915V88.04H65.1615V87.71H63.8415V88.04H63.5115V90.68H63.8415V91.01H65.1615V90.68H65.4915V90.35ZM66.8115 84.74V92H65.8215V91.34H65.4915V91.67H65.1615V92H63.5115V91.67H63.1815V91.34H62.8515V91.01H62.5215V87.71H62.8515V87.38H63.1815V87.05H63.5115V86.72H65.1615V87.05H65.4915V87.38H65.8215V84.74H66.8115Z" fill="white"/>
</g>
<defs>
<clipPath id="clip0_82_256">
<rect width="80" height="112" fill="white"/>
</clipPath>
<clipPath id="clip1_82_256">
<rect width="6" height="6" fill="white" transform="translate(49 69)"/>
</clipPath>
<clipPath id="clip2_82_256">
<rect width="6" height="6" fill="white" transform="translate(57 69)"/>
</clipPath>
<clipPath id="clip3_82_256">
<rect width="6" height="6" fill="white" transform="translate(17 69)"/>
</clipPath>
<clipPath id="clip4_82_256">
<rect width="6" height="6" fill="white" transform="translate(25 69)"/>
</clipPath>
<clipPath id="clip5_82_256">
<rect width="6" height="6" fill="white" transform="translate(33 69)"/>
</clipPath>
<clipPath id="clip6_82_256">
<rect width="6" height="6" fill="white" transform="translate(41 69)"/>
</clipPath>
<clipPath id="clip7_82_256">
<rect width="24" height="24" fill="white" transform="translate(15 40)"/>
</clipPath>
</defs>
</svg>
