<svg width="80" height="112" viewBox="0 0 80 112" fill="none" xmlns="http://www.w3.org/2000/svg">
<g clip-path="url(#clip0_82_101)">
<rect x="2" y="2" width="76" height="108" rx="14" fill="black" stroke="white" stroke-width="4"/>
<g clip-path="url(#clip1_82_101)">
<rect x="49.5" y="69.5" width="5" height="5" rx="2.5" stroke="white"/>
</g>
<g clip-path="url(#clip2_82_101)">
<rect x="57.5" y="69.5" width="5" height="5" rx="2.5" stroke="white"/>
</g>
<path d="M16 30.5556L23.2 21H32.8L40 32.9444L47.2 21H56.8L64 30.5556V44.8889L44.8 64H35.2L16 44.8889V30.5556Z" fill="white"/>
<path d="M32 42V48H38V56H32V62H24V56H18V48H24V42H32Z" fill="white" stroke="black" stroke-width="4"/>
<g clip-path="url(#clip3_82_101)">
<rect x="17" y="69" width="6" height="6" rx="3" fill="white"/>
</g>
<g clip-path="url(#clip4_82_101)">
<rect x="25" y="69" width="6" height="6" rx="3" fill="white"/>
</g>
<g clip-path="url(#clip5_82_101)">
<rect x="33" y="69" width="6" height="6" rx="3" fill="white"/>
</g>
<g clip-path="url(#clip6_82_101)">
<rect x="41" y="69" width="6" height="6" rx="3" fill="white"/>
</g>
<path d="M16.46 14.74V16H11V12.64H11.42V12.22H11.84V11.8H12.26V11.38H12.68V10.96H14.36V10.54H14.78V10.12H15.2V8.44H14.78V8.02H12.68V8.44H12.26V9.28H11V8.02H11.42V7.6H11.84V7.18H12.26V6.76H15.2V7.18H15.62V7.6H16.04V8.02H16.46V10.54H16.04V10.96H15.62V11.38H15.2V11.8H14.78V12.22H13.1V12.64H12.68V13.06H12.26V14.74H16.46Z" fill="white"/>
<path d="M25.29 87.71V92H24.3V88.04H23.97V87.71H22.65V88.04H22.32V88.37H21.99V92H21V84.74H21.99V87.38H22.32V87.05H22.65V86.72H24.3V87.05H24.63V87.38H24.96V87.71H25.29ZM28.9221 89.36H29.2521V88.04H28.9221V87.71H27.6021V88.04H27.2721V88.37H26.9421V89.03H27.2721V89.36H27.6021V89.69H28.9221V89.36ZM30.2421 87.71V89.69H29.9121V90.02H29.5821V90.35H29.2521V90.68H27.6021V90.35H27.2721V90.02H26.9421V92H25.9521V86.72H26.9421V87.38H27.2721V87.05H27.6021V86.72H29.2521V87.05H29.5821V87.38H29.9121V87.71H30.2421ZM40.1464 87.05V88.04H39.4864V87.71H37.1764V88.04H36.8464V92H35.8564V87.71H36.1864V87.38H36.5164V87.05H36.8464V86.72H39.8164V87.05H40.1464ZM41.7986 89.03H44.1086V88.04H43.7786V87.71H42.1286V88.04H41.7986V89.03ZM45.0986 87.71V89.36H44.7686V89.69H44.4386V90.02H41.7986V90.68H42.1286V91.01H44.7686V92H41.7986V91.67H41.4686V91.34H41.1386V91.01H40.8086V87.71H41.1386V87.38H41.4686V87.05H41.7986V86.72H44.1086V87.05H44.4386V87.38H44.7686V87.71H45.0986ZM47.0807 89.03H49.0607V87.71H47.0807V88.04H46.7507V88.7H47.0807V89.03ZM46.7507 92V91.01H48.7307V90.68H49.0607V90.02H46.7507V89.69H46.4207V89.36H46.0907V89.03H45.7607V87.71H46.0907V87.38H46.4207V87.05H46.7507V86.72H50.0507V91.01H49.7207V91.34H49.3907V91.67H49.0607V92H46.7507ZM51.7029 89.03H54.0129V88.04H53.6829V87.71H52.0329V88.04H51.7029V89.03ZM55.0029 87.71V89.36H54.6729V89.69H54.3429V90.02H51.7029V90.68H52.0329V91.01H54.6729V92H51.7029V91.67H51.3729V91.34H51.0429V91.01H50.7129V87.71H51.0429V87.38H51.3729V87.05H51.7029V86.72H54.0129V87.05H54.3429V87.38H54.6729V87.71H55.0029ZM59.955 87.71V92H58.965V88.04H58.635V87.71H57.315V88.04H56.985V88.37H56.655V92H55.665V86.72H56.655V87.38H56.985V87.05H57.315V86.72H58.965V87.05H59.295V87.38H59.625V87.71H59.955Z" fill="white"/>
</g>
<defs>
<clipPath id="clip0_82_101">
<rect width="80" height="112" fill="white"/>
</clipPath>
<clipPath id="clip1_82_101">
<rect width="6" height="6" fill="white" transform="translate(49 69)"/>
</clipPath>
<clipPath id="clip2_82_101">
<rect width="6" height="6" fill="white" transform="translate(57 69)"/>
</clipPath>
<clipPath id="clip3_82_101">
<rect width="6" height="6" fill="white" transform="translate(17 69)"/>
</clipPath>
<clipPath id="clip4_82_101">
<rect width="6" height="6" fill="white" transform="translate(25 69)"/>
</clipPath>
<clipPath id="clip5_82_101">
<rect width="6" height="6" fill="white" transform="translate(33 69)"/>
</clipPath>
<clipPath id="clip6_82_101">
<rect width="6" height="6" fill="white" transform="translate(41 69)"/>
</clipPath>
</defs>
</svg>
