<svg width="80" height="112" viewBox="0 0 80 112" fill="none" xmlns="http://www.w3.org/2000/svg">
<g clip-path="url(#clip0_82_193)">
<rect x="2" y="2" width="76" height="108" rx="14" fill="black" stroke="white" stroke-width="4"/>
<g clip-path="url(#clip1_82_193)">
<rect x="49.5" y="69.5" width="5" height="5" rx="2.5" stroke="white"/>
</g>
<g clip-path="url(#clip2_82_193)">
<rect x="57.5" y="69.5" width="5" height="5" rx="2.5" stroke="white"/>
</g>
<g clip-path="url(#clip3_82_193)">
<rect x="17" y="69" width="6" height="6" rx="3" fill="white"/>
</g>
<g clip-path="url(#clip4_82_193)">
<rect x="25" y="69" width="6" height="6" rx="3" fill="white"/>
</g>
<g clip-path="url(#clip5_82_193)">
<rect x="33" y="69" width="6" height="6" rx="3" fill="white"/>
</g>
<g clip-path="url(#clip6_82_193)">
<rect x="41" y="69" width="6" height="6" rx="3" fill="white"/>
</g>
<path d="M14.78 14.32H15.2V12.22H14.78V11.8H12.68V12.22H12.26V14.32H12.68V14.74H14.78V14.32ZM16.46 11.8V14.74H16.04V15.16H15.62V15.58H15.2V16H12.26V15.58H11.84V15.16H11.42V14.74H11V10.96H11.42V10.12H11.84V9.7H12.26V9.28H12.68V8.86H13.1V8.44H13.52V8.02H13.94V7.6H14.36V7.18H14.78V6.76H16.04V7.6H15.62V8.02H15.2V8.44H14.78V8.86H14.36V9.28H13.94V9.7H13.52V10.12H13.1V10.54H15.2V10.96H15.62V11.38H16.04V11.8H16.46Z" fill="white"/>
<path d="M51.2 23.0001V38.7693H41.6L38.4 35.6155L35.2 32.4616L35.2 32.2493L32 29.3078H35.2L35.2 32.4616H38.4V35.6155V38.7693V45.077L41.6 41.9232H48V48.2309H51.2L54.4 51.3847L57.6 54.5386H60.8L64 57.6924V64.0001H44.8L41.6 60.8462L38.4 57.6924L35.2 60.8462H38.4V64.0001H35.2H28.8V60.8462H35.2L38.4 57.6924H28.8V51.3847V48.2309H32L35.2 45.077H28.8H22.4V41.9232H28.8L25.6 38.7693H19.2V35.6155H25.6L22.4 32.4616H16V29.3078H32L25.6 26.1539V23.0001H51.2Z" fill="white"/>
<path d="M20.29 88.69V90.01H19.96V90.34H19.63V90.67H19.3V91H16.99V90.67H16.66V90.34H16.33V90.01H16V89.35H16.99V89.68H17.32V90.01H18.97V89.68H19.3V89.02H18.97V88.69H16.99V88.36H16.66V88.03H16.33V87.7H16V86.71H16.33V86.38H16.66V86.05H16.99V85.72H19.63V86.05H19.96V86.38H20.29V87.04H19.3V86.71H17.32V87.04H16.99V87.37H17.32V87.7H19.3V88.03H19.63V88.36H19.96V88.69H20.29ZM25.2421 86.71V91H24.2521V87.04H23.9221V86.71H22.6021V87.04H22.2721V87.37H21.9421V91H20.9521V83.74H21.9421V86.38H22.2721V86.05H22.6021V85.72H24.2521V86.05H24.5821V86.38H24.9121V86.71H25.2421ZM30.1943 90.01V91H25.9043V90.01H27.5543V86.71H26.8943V85.72H28.5443V90.01H30.1943ZM28.5443 83.74V84.73H27.5543V83.74H28.5443ZM33.8264 88.36H34.1564V87.04H33.8264V86.71H32.5064V87.04H32.1764V87.37H31.8464V88.03H32.1764V88.36H32.5064V88.69H33.8264V88.36ZM35.1464 86.71V88.69H34.8164V89.02H34.4864V89.35H34.1564V89.68H32.5064V89.35H32.1764V89.02H31.8464V91H30.8564V85.72H31.8464V86.38H32.1764V86.05H32.5064V85.72H34.1564V86.05H34.4864V86.38H34.8164V86.71H35.1464ZM45.0507 88.69V90.01H44.7207V90.34H44.3907V90.67H44.0607V91H41.7507V90.67H41.4207V90.34H41.0907V90.01H40.7607V89.35H41.7507V89.68H42.0807V90.01H43.7307V89.68H44.0607V89.02H43.7307V88.69H41.7507V88.36H41.4207V88.03H41.0907V87.7H40.7607V86.71H41.0907V86.38H41.4207V86.05H41.7507V85.72H44.3907V86.05H44.7207V86.38H45.0507V87.04H44.0607V86.71H42.0807V87.04H41.7507V87.37H42.0807V87.7H44.0607V88.03H44.3907V88.36H44.7207V88.69H45.0507ZM48.6829 88.36H49.0129V87.04H48.6829V86.71H47.3629V87.04H47.0329V87.37H46.7029V88.03H47.0329V88.36H47.3629V88.69H48.6829V88.36ZM50.0029 86.71V88.69H49.6729V89.02H49.3429V89.35H49.0129V89.68H47.3629V89.35H47.0329V89.02H46.7029V91H45.7129V85.72H46.7029V86.38H47.0329V86.05H47.3629V85.72H49.0129V86.05H49.3429V86.38H49.6729V86.71H50.0029ZM51.655 88.03H53.965V87.04H53.635V86.71H51.985V87.04H51.655V88.03ZM54.955 86.71V88.36H54.625V88.69H54.295V89.02H51.655V89.68H51.985V90.01H54.625V91H51.655V90.67H51.325V90.34H50.995V90.01H50.665V86.71H50.995V86.38H51.325V86.05H51.655V85.72H53.965V86.05H54.295V86.38H54.625V86.71H54.955ZM56.6072 88.03H58.9172V87.04H58.5872V86.71H56.9372V87.04H56.6072V88.03ZM59.9072 86.71V88.36H59.5772V88.69H59.2472V89.02H56.6072V89.68H56.9372V90.01H59.5772V91H56.6072V90.67H56.2772V90.34H55.9472V90.01H55.6172V86.71H55.9472V86.38H56.2772V86.05H56.6072V85.72H58.9172V86.05H59.2472V86.38H59.5772V86.71H59.9072ZM63.5393 89.35H63.8693V87.37H63.5393V87.04H63.2093V86.71H61.8893V87.04H61.5593V89.68H61.8893V90.01H63.2093V89.68H63.5393V89.35ZM64.8593 83.74V91H63.8693V90.34H63.5393V90.67H63.2093V91H61.5593V90.67H61.2293V90.34H60.8993V90.01H60.5693V86.71H60.8993V86.38H61.2293V86.05H61.5593V85.72H63.2093V86.05H63.5393V86.38H63.8693V83.74H64.8593Z" fill="white"/>
</g>
<defs>
<clipPath id="clip0_82_193">
<rect width="80" height="112" fill="white"/>
</clipPath>
<clipPath id="clip1_82_193">
<rect width="6" height="6" fill="white" transform="translate(49 69)"/>
</clipPath>
<clipPath id="clip2_82_193">
<rect width="6" height="6" fill="white" transform="translate(57 69)"/>
</clipPath>
<clipPath id="clip3_82_193">
<rect width="6" height="6" fill="white" transform="translate(17 69)"/>
</clipPath>
<clipPath id="clip4_82_193">
<rect width="6" height="6" fill="white" transform="translate(25 69)"/>
</clipPath>
<clipPath id="clip5_82_193">
<rect width="6" height="6" fill="white" transform="translate(33 69)"/>
</clipPath>
<clipPath id="clip6_82_193">
<rect width="6" height="6" fill="white" transform="translate(41 69)"/>
</clipPath>
</defs>
</svg>
