<svg width="128" height="128" viewBox="0 0 128 128" fill="none" xmlns="http://www.w3.org/2000/svg">
<g clip-path="url(#clip0_35_2365)">
<path d="M56 0H72L76 4L80 20L84 36L88 56L92 60V64V72H120V68L124 64H128V96V104H124L120 100H116L104 104L92 108V128H88L84 124L80 120L76 116V104H72H56H52V116L48 120L44 124L40 128H36V108L24 104L12 100H8L4 104H0V64H4L8 68V72H36V60L40 56L44 36L48 20L52 4L56 0Z" fill="white"/>
<path d="M56 16L64 8L72 16L80 56L72 72V72.0315L64 72H56L48 56L56 16Z" fill="black"/>
<path d="M96 80H120V92L92 100.5L96 80Z" fill="black"/>
<path d="M32 80H8V92L36 100.5L32 80Z" fill="black"/>
<path d="M55.9999 80H71.9999L79.9999 72L87.9999 88L79.9999 96H71.9999H55.9999H48L40 88L47.9999 72L55.9999 80Z" fill="black"/>
</g>
<defs>
<clipPath id="clip0_35_2365">
<rect width="128" height="128" fill="white"/>
</clipPath>
</defs>
</svg>
